<?xml version="1.0" encoding="utf-8"?>
<!-- Generator: Adobe Illustrator 26.5.0, SVG Export Plug-In . SVG Version: 6.00 Build 0)  -->
<svg version="1.1" id="Layer_1" xmlns="http://www.w3.org/2000/svg" xmlns:xlink="http://www.w3.org/1999/xlink" x="0px" y="0px"
	 viewBox="0 0 1272.1 315.2" style="enable-background:new 0 0 1272.1 315.2;" xml:space="preserve">
<style type="text/css">
	.st0{fill:#26a7dc;}
</style>
<g>
	<path class="st0" d="M387.5,159.9l-4,18.8h-24.8l-19.6,94.8h-22.9l19.6-94.8H311l4-18.8H387.5z"/>
	<path class="st0" d="M397.4,159.9h42.3c18.9,0,28.1,9.7,24.2,29.3c-3.2,15.3-11.3,25.3-24.8,28v0.3c15.3,2.1,15.6,10.7,11,34.7
		c-2.4,12.1-2.9,18,1,20.4l-0.2,1H426c-1.7-3.2-1.3-7.5-0.5-11.9l4-21.8c1.4-8.9-1.3-14.3-10.7-14.3h-12.2l-9.9,48h-22.9
		L397.4,159.9z M409.9,209.5h9.5c11,0,18.1-4.8,20.7-17c2.2-10.5-1.9-15.7-12.6-15.7h-10.8L409.9,209.5z"/>
	<path class="st0" d="M507.9,159.9h28.3l6.5,113.5h-23.9l-0.3-24h-30.2l-10.2,24h-23.9L507.9,159.9z M496.1,230.7h22.3l-0.3-51h-0.3
		L496.1,230.7z"/>
	<path class="st0" d="M551.8,273.4l23.5-113.5h22.9l-23.5,113.5H551.8z"/>
	<path class="st0" d="M591.7,273.4l23.5-113.5h22.9l-19.7,94.8H659l-3.8,18.8H591.7z"/>
	<path class="st0" d="M688.9,159.9h38.3c18.6,0,31,7,26.2,28.8c-2.5,12.2-10.2,21.6-22.3,24.8l-0.2,0.3
		c12.2,1.7,18.4,11.1,15.3,26.4c-3.8,17.8-15.6,33.2-42.3,33.2h-38.6L688.9,159.9z M691.7,256.6h8.9c11,0,19.2-4,21.9-17.2
		c2.5-13.2-3.8-17-14-17h-9.9L691.7,256.6z M702.1,206.5h6.5c12.7,0,19.1-4.1,21.5-14.9c2.4-10.8-2.1-14.8-13.5-14.8h-8.3
		L702.1,206.5z"/>
	<path class="st0" d="M753.7,273.4l23.5-113.5h22.9l-19.7,94.8H821l-3.8,18.8H753.7z"/>
	<path class="st0" d="M873,159.9h28.3l6.5,113.5H884l-0.3-24h-30.2l-10.2,24h-23.9L873,159.9z M861.2,230.7h22.3l-0.3-51h-0.3
		L861.2,230.7z"/>
	<path class="st0" d="M915,256.8l58-78.1h-39l4-18.8h65.4l-3.7,17.3l-58.5,77.4h43.1l-3.8,18.8h-68.9L915,256.8z"/>
	<path class="st0" d="M1079.3,159.9l-4,18.8h-40.6l-5.6,26.7h38.2l-3.8,18.8h-38.2l-6.4,30.5h42.1l-3.8,18.8h-65l23.5-113.5H1079.3z
		"/>
	<path class="st0" d="M1092.3,159.9h42.3c18.9,0,28.1,9.7,24.2,29.3c-3.2,15.3-11.3,25.3-24.8,28v0.3c15.3,2.1,15.6,10.7,11,34.7
		c-2.4,12.1-2.9,18,1,20.4l-0.2,1h-24.8c-1.7-3.2-1.3-7.5-0.5-11.9l4-21.8c1.4-8.9-1.3-14.3-10.7-14.3h-12.2l-9.9,48h-22.9
		L1092.3,159.9z M1104.9,209.5h9.5c11,0,18.1-4.8,20.7-17c2.2-10.5-1.9-15.7-12.6-15.7h-10.8L1104.9,209.5z"/>
	<path class="st0" d="M1182.9,238l-0.8,3.3c-0.5,2.7-0.8,5.1-0.8,7.3c0,6.2,3.3,10.2,12.4,10.2c7,0,14.5-4.5,16.5-14
		c2.1-10.2-2.4-14.3-16.4-19.4c-19.1-6.8-26.4-15.6-22.6-34.3c4.6-22.3,20.4-33.4,42.1-33.4c20.5,0,33.1,8.7,28.8,30.5l-0.6,3.2
		h-21.9c2.4-10.8,0-16.9-8.9-16.9c-10.3,0-14.5,6.4-15.7,13.2c-1.7,7-0.3,11.5,8.4,15.4l16.1,7.6c15.7,7.6,18.4,16.1,15.4,30.1
		c-4.9,24-21.8,34.8-46.6,34.8c-25.9,0-33.7-12.1-29.3-33.1l1-4.6H1182.9z"/>
</g>
<g>
	<path class="st0" d="M410.7,46.2H439l6.5,113.5h-23.9l-0.3-24h-30.2l-10.2,24h-23.9L410.7,46.2z M398.9,117h22.3l-0.3-51h-0.3
		L398.9,117z"/>
	<path class="st0" d="M477,46.2h42.3c18.9,0,28.1,9.7,24.2,29.3c-3.2,15.3-11.3,25.3-24.8,28v0.3c15.3,2.1,15.6,10.7,11,34.7
		c-2.4,12.1-2.9,18,1,20.4l-0.2,1h-24.8c-1.7-3.2-1.3-7.5-0.5-11.9l4-21.8c1.4-8.9-1.3-14.3-10.7-14.3h-12.2l-9.9,48h-22.9L477,46.2
		z M489.6,95.8h9.5c11,0,18.1-4.8,20.7-17c2.2-10.5-1.9-15.7-12.6-15.7h-10.8L489.6,95.8z"/>
	<path class="st0" d="M565.4,46.2h22.9l-9.1,43.4H606l9.1-43.4H638l-23.5,113.5h-22.9l10.3-50.4h-26.7l-10.3,50.4h-22.9L565.4,46.2z
		"/>
	<path class="st0" d="M717.3,46.2l-4,18.8h-40.6l-5.6,26.7h38.2l-3.8,18.8h-38.2L657,141h42.1l-3.8,18.8h-65l23.5-113.5H717.3z"/>
	<path class="st0" d="M793.8,46.2l-4,18.8h-40.6l-5.6,26.7h38.2l-3.8,18.8h-38.2l-6.4,30.5h42.1l-3.8,18.8h-65l23.5-113.5H793.8z"/>
	<path class="st0" d="M783.3,159.7l23.5-113.5h22.9L810,141h40.6l-3.8,18.8H783.3z"/>
	<path class="st0" d="M386.3,46.2l-4,18.8h-24.8L338,159.7h-22.9L334.7,65h-24.8l4-18.8H386.3z"/>
</g>
<g>
	<path class="st0" d="M113.1,58.4c60.2,16.3,70,23.8,73.3,31c5.7,12.5-28.9,21.3-34.1,30.3c-4.7,8.1,38,10.7,42.8,18.5
		c11.5,18.8-71.9,31.2-67.5,45.2c3.6,11.4,28.3,15.4,119.6,39.3c1.1,0.3-27.9,26.2-27.9,26.2c-0.3,0.1-0.6,0.2-1,0.1
		c-108.2-36.4-131.6-56.6-129.7-68.5c3-19.9,73.4-25,72.4-37.3c-0.7-9.2-37.7-11.5-38.2-20.9c-0.5-9.4,39-17.5,40.9-29.8
		c1.2-7.7,0.4-11.4-54.6-30.1L113.1,58.4z"/>
	<path class="st0" d="M159.3,289c0.8,0,1-0.2,1.1-0.9c0.3-2,0.8-4,1-6.1c0.2-1.8,0.5-3.5,2.1-4.6c2.4-1.6,5-2.1,7.9-1.5
		c1.8,0.4,2.9,1.6,3.8,3.1c1.3,2.1,2,4.5,2.6,6.9c0.3,0.9,0.6,1.3,1.6,1.1c1.3-0.3,2.6-0.4,4-0.6c0.6-0.1,0.9-0.3,0.9-0.9
		c0-1.9,0.3-3.8,0-5.7c-0.7-3.8,0.3-5.6,3.8-7.3c0.8-0.4,1.6-0.6,2.4-0.8c2.7-0.7,4.9,0,6.6,2.1c1.3,1.5,2.4,3.1,3.3,4.9
		c1.4,2.9,1.6,2.9,4.6,1.7c0.4-0.2,0.7-0.4,1.1-0.5c1.1-0.4,1.3-1.1,1.1-2.1c-0.2-1.9-0.6-3.7-1.3-5.5c-0.8-2.5-0.3-4.6,1.7-6.3
		c1.4-1.2,3-2.1,4.8-2.6c1.8-0.4,3.4-0.1,4.8,1c1.3,1.1,2.6,2.1,3.7,3.4c1,1.1,1.7,2.4,2.9,3.2c1.3-0.8,2.7-1.5,4-2.3
		c0.1-0.1,0.2-0.1,0.4-0.2c0.4-0.3,0.5-0.6,0.3-1.1c-0.7-1.8-1-3.7-2.1-5.3c-0.9-1.2-1.2-2.6-1.2-4.2c0.2-2.9,4.8-7.6,8.9-6.7
		c1.1,0.2,2.1,0.8,3.1,1.3c2,1,3.5,2.6,5.2,4c0.7,0.6,1.1,0.5,1.8,0.1c1.1-0.7,1.9-1.7,2.8-2.5c0.7-0.6,0.6-1.2,0.2-1.8
		c-1-1.7-2-3.4-3.3-4.9c-1.9-2.2-2-4.3-0.6-6.8c0.6-1.1,1.3-2,2.1-2.9c1.6-1.7,3.5-2.3,5.7-1.9c1.3,0.2,2.5,0.8,3.8,1.4
		c1.7,0.8,3.3,1.7,5,2.7c1.3-1.6,2.6-3.1,3.8-4.6c-1.8-1.9-3.2-3.9-5.2-5.4c-1.9-1.4-2.3-3.5-1.7-5.7c0.5-1.8,1.4-3.4,2.6-4.8
		c1-1.2,2.3-1.9,3.9-1.9c1,0,2,0.1,2.9,0.2c2,0.4,3.9,1.1,5.8,1.8c1,0.4,1.6,0.2,2-0.8c0.5-1.2,1.1-2.3,1.7-3.4
		c0.3-0.5,0.2-0.9-0.3-1.3c-1.5-1.1-2.8-2.4-4.4-3.3c-3.6-2-4.4-3.8-3.4-7.8c0.1-0.4,0.2-0.8,0.4-1.2c1.2-3.6,3-4.9,6.7-4.9
		c2.3,0,4.5,0.2,6.7,0.6c1.3,0.2,1.4,0.1,1.8-1.1c0.3-1,0.5-2.1,0.9-3c0.4-1.1,0-1.6-0.9-2.1c-1.6-0.9-3.2-1.7-5-2.2
		c-2.8-0.9-4.1-2.7-4.2-5.7c0-1.4,0.2-2.8,0.6-4.2c0.6-1.9,1.8-3.3,3.8-3.9c1.9-0.5,3.8-1,5.8-1c4.2-0.1,4,0.6,4.4-4.3
		c0.1-1.7,0.1-1.6-1.4-2.3c-1.9-0.8-3.9-0.7-5.9-1.3c-2.8-0.8-4.4-2.5-4.7-5.5c-0.1-0.8-0.1-1.5-0.1-2.3c-0.1-3.2,1.4-5.3,4.4-6.5
		c2.2-0.8,4.4-1.5,6.7-2c0.9-0.2,1.2-0.6,1-1.4c-0.1-1.1-0.2-2.2-0.2-3.4c0-0.9-0.3-1.5-1.3-1.5c-1.9-0.1-3.7-0.5-5.7-0.3
		c-2.6,0.3-4.8-0.9-5.8-3.3c-2.1-4.8-1.7-8.7,3.3-11.5c1.7-0.9,3.4-1.6,5.2-2.4c0.8-0.3,1.1-0.8,0.8-1.6c-0.4-1.1-0.8-2.3-1-3.4
		c-0.2-0.9-0.6-1-1.3-0.9c-1.9,0.1-3.8,0.1-5.7,0.6c-2.4,0.7-4.6,0.2-6.3-1.8c-3.5-4-3.1-8.6,0.8-12.1c0.4-0.4,0.9-0.7,1.3-1.1
		c1.1-0.8,2.1-1.6,3.3-2.3c1-0.6,1-1.2,0.5-2c-0.5-1-1-2-1.5-3c-0.3-0.7-0.7-0.9-1.5-0.7c-1.9,0.5-3.8,0.9-5.6,1.8
		c-2.5,1.3-4.9,0.8-7-1.2c-0.8-0.8-1.4-1.7-2-2.7c-1.5-2.5-1.5-4.9,0.1-7.3c0.9-1.3,1.9-2.6,3-3.8c0.9-1,2.6-1.7,2.4-3.2
		c-0.2-1.3-1.5-2.3-2.3-3.5c-0.5-0.6-0.9-0.7-1.6-0.4c-1.8,0.8-3.6,1.6-5.2,2.8c-1.6,1.3-3.5,1.8-5.4,1c-2.6-1-4.5-2.9-5.6-5.5
		c-0.9-2-0.3-4,0.6-5.9c1.1-2.3,2.7-4.3,4.1-6.5c-1.1-1.1-2.3-2.1-3.4-3.2c-0.6-0.6-1.1-0.7-1.8-0.1c-1.5,1.2-3.1,2.2-4.4,3.6
		c-2.4,2.5-4.8,2.8-7.8,1.1c-0.7-0.4-1.4-0.9-2.1-1.4c-2.2-1.9-3-4.3-2.3-7.2c0.6-2.4,1.5-4.7,2.6-6.9c0.3-0.7,0.3-1.1-0.4-1.5
		c-1.1-0.7-2.3-1.4-3.4-2.1c-0.6-0.4-1-0.3-1.4,0.2c-1.4,1.5-2.9,2.9-4,4.7c-0.8,1.3-1.8,2.2-3.2,2.6c-4.8,1.4-10-2.7-10-7.7
		c0-2.5,0.5-4.9,1.1-7.3c0.2-0.8,0.1-1.3-0.8-1.6c-1.1-0.4-2.3-0.8-3.3-1.3c-0.7-0.3-1.1-0.3-1.6,0.4c-1,1.8-2.4,3.3-3.1,5.3
		c-0.9,2.6-3.5,4-6.2,3.6c-1.1-0.2-2.2-0.5-3.3-0.8c-2.2-0.7-3.6-2.2-4.1-4.4c-0.4-1.8-0.6-3.6-0.5-5.4c0-1.1,0.1-2.3,0.1-3.4
		c0-0.7-0.2-1-0.9-1.1c-1.3-0.2-2.6-0.5-3.9-0.8c-0.7-0.1-1.1,0-1.3,0.7c-0.6,1.9-1.7,3.6-2,5.6c-0.4,2.6-2.1,4.8-5.6,5
		c-4,0.3-7.6-0.7-8.8-5.7c-0.4-1.8-0.8-3.6-1.1-5.4c-0.3-2.1-0.3-2.1-2.6-2.2c-0.7,0-1.4,0-2.1-0.1c-1.5,0-1.6,0-1.8,1.4
		c-0.4,2-0.9,4-0.9,6c0,2.3-1.3,3.9-3.4,4.9c-1.5,0.7-3.1,0.9-4.7,0.9c-2.2,0-3.9-0.9-5.1-2.8c-0.9-1.5-1.6-3.1-2.2-4.8
		c-0.5-1.3-0.4-3.2-1.5-3.8c-1.2-0.7-2.9,0.3-4.3,0.4c-0.2,0-0.4,0.1-0.6,0.1c-0.7,0-0.9,0.5-0.9,1.1c0.1,2.2-0.2,4.3,0.2,6.5
		c0.4,2.5-0.6,4.4-2.8,5.7c-1.5,0.9-3.1,1.4-4.8,1.6c-2,0.2-3.8-0.4-5.1-2c-0.7-0.9-1.6-1.8-2.2-2.8c-0.9-1.4-1.6-2.8-2.4-4.2
		c-0.3-0.6-0.7-0.8-1.3-0.5c-1.4,0.5-2.8,1.1-4.1,1.5c-0.7,0.2-0.8,0.7-0.6,1.3c0.5,2,0.7,4.1,1.4,6.1c1.1,2.8,0.1,5.3-2.4,6.9
		c-1,0.7-2.1,1.2-3.2,1.6c-2,0.8-3.9,0.5-5.6-0.8c-1.6-1.2-3-2.6-4.3-4c-0.9-0.9-1.2-2.7-2.7-2.6c-1.3,0.1-2.4,1.2-3.5,1.9
		c-0.1,0-0.1,0.1-0.2,0.1c-0.9,0.4-1.1,1.1-0.7,2.1c0.7,1.8,1.3,3.7,2.3,5.4c0.6,1,1,2.2,0.9,3.4c-0.1,3.4-5.4,7.9-9.2,6.9
		c-0.5-0.1-0.9-0.3-1.4-0.5C79,62.9,77.6,62,76.3,61c-1.2-0.9-2.1-2.3-3.6-2.8c-1.2,1.1-2.4,2.1-3.7,3.1c-0.7,0.5-0.8,1-0.3,1.8
		c1.1,1.7,2.1,3.5,3.4,5c1.9,2.3,2,4.6,0.4,7.2c-0.8,1.3-1.8,2.3-3,3.3c-0.7,0.6-1.6,1-2.5,1.1c-1.8,0.3-6.1-1-7.6-2.3
		c-2.9-2.4-3.4-2.4-5.7,0.6c-0.4,0.5-0.7,1-1.1,1.5c-0.4,0.5-0.3,0.8,0.1,1.3c1.4,1.6,2.7,3.3,4.4,4.5c1.5,1,2.2,2.5,2.2,4.3
		c0.2,4.8-3.7,8.6-8.5,8.3c-0.6,0-1.2-0.2-1.9-0.3c-1.8-0.3-3.5-1.1-5.2-1.7c-0.8-0.3-1.4-0.4-1.8,0.7c-0.3,1-1,1.9-1.4,2.8
		c-0.8,1.7-0.8,1.7,0.7,2.9c1.3,1.1,2.7,2.1,4.2,2.8c2.7,1.4,3.8,3.9,3.1,6.7c-0.9,4.1-2.4,6.5-6.3,6.8c-2,0.2-3.9,0.2-5.9-0.3
		c-0.8-0.2-1.7-0.3-2.5-0.4c-0.5-0.1-1,0.1-1.2,0.6c-0.4,1.5-1,2.9-1.2,4.5c-0.1,0.5,0,0.9,0.6,1.1c2,0.9,3.8,2.1,5.9,2.7
		c2.1,0.6,3.5,2.2,3.8,4.4c0.3,2.2,0,4.4-0.9,6.4c-0.7,1.6-2.1,2.5-3.7,3c-1.7,0.5-3.4,0.8-5.2,1c-1.4,0.1-3.3-0.6-4.1,0.6
		c-0.7,1.1-0.4,2.9-0.6,4.3c0,0.1,0,0.1,0,0.2c-0.2,0.8,0.2,1.1,0.9,1.4c2,0.7,4,1.2,6.1,1.5c3.1,0.5,4.8,2.5,5,5.6
		c0.1,0.6,0,1.3,0.1,1.9c0.2,3.2-1.3,5.3-4.2,6.6c-2.3,1-4.7,1.5-7.1,2c-0.6,0.1-1.1,0.2-1.1,1c0.1,1.4,0.1,2.8,0.3,4.2
		c0.1,0.6,0.3,1.1,1.2,1.2c1.7,0.2,3.4,0.6,5.2,0.5c4.1-0.4,6.2,1.1,7.3,5.1c0.2,0.7,0.3,1.4,0.5,2.1c0.5,2.6-0.5,4.6-2.7,6.2
		c-2.1,1.5-4.3,2.6-6.7,3.5c-1.3,0.4-1.3,0.6-1,1.9c0.3,1.2,0.8,2.4,1.1,3.6c0.2,0.7,0.5,0.9,1.2,0.8c2-0.2,4,0,6.1-0.6
		c3.1-0.8,5.3,0.3,6.9,3.1c0.4,0.7,0.7,1.5,1.1,2.3c1.1,2.6,0.6,4.9-1.4,7c-1.6,1.6-3.4,3-5.3,4.2c-1.9,1.2-1.9,1.2-0.9,3.1
		c0.4,0.8,0.8,1.6,1.1,2.5c0.3,0.8,0.8,1,1.6,0.8c2-0.5,4.1-1.1,6-1.9c2.1-0.9,4.3-0.9,6,0.7c3.8,3.7,5.3,7.3,1.7,11.6
		c-0.4,0.5-0.9,1.1-1.4,1.6c-1,1-2,2-3,2.9c-0.6,0.6-0.7,1.2-0.2,1.8c0.8,1.1,1.6,2.1,2.4,3.2c0.3,0.4,0.7,0.6,1.1,0.3
		c1.8-1,3.9-1.4,5.6-2.8c1.5-1.2,3.3-1.6,5.2-1.1c4.5,1.1,7.2,6.3,5.4,10.6c-1,2.3-2.4,4.3-3.9,6.2c-0.4,0.5-0.6,1,0,1.4
		c1.1,0.8,1.8,1.9,2.8,2.8c0.7,0.6,1.3,0.7,2.1,0.1c1.7-1.1,3.3-2.3,4.7-3.8c1.8-2,5-2.3,7.4-0.9c0.9,0.6,1.8,1.1,2.6,1.8
		c1.9,1.6,2.7,3.7,2.1,6.2c-0.5,2.3-1.4,4.5-2.4,6.7c-0.7,1.5-0.7,1.5,0.6,2.5c1.2,0.9,2.5,1.7,3.9,2.6c1.5-2,3.3-3.5,4.6-5.6
		c1.7-2.6,3.9-3.3,6.8-2.3c1.1,0.4,2.1,0.8,3.1,1.4c2.2,1.2,3.2,3,3.2,5.5c0,2.6-0.5,5-1.2,7.5c-0.4,1.4-0.2,1.7,1,2.3
		c1,0.4,2,0.7,2.9,1.2c0.9,0.5,1.4,0.2,1.9-0.6c1.1-1.7,2.2-3.4,3-5.3c1.1-2.5,2.9-3.6,5.7-3.5c1.6,0.1,3.1,0.4,4.5,1.1
		c1.8,0.8,2.9,2.1,3.4,4c0.8,3.1,0.6,6.3,0.3,9.5c1.5,0.6,3.2,0.7,4.8,1.2c0.8,0.2,1.2,0,1.5-0.7c0.6-1.8,1.6-3.4,1.9-5.3
		c0.6-3.4,2.6-5,6-5.1c0.8,0,1.7,0,2.5,0c2.3,0,3.9,1.1,4.9,3.1c1,1.9,1.6,3.9,1.9,6c0.5,4.3,0.5,4.3,4.9,4.2 M158,260.5
		c-56.8,0-102.8-46-102.8-102.8S101.2,55,158,55s102.8,46,102.8,102.8S214.8,260.5,158,260.5z"/>
</g>
</svg>
