<?xml version="1.0" encoding="UTF-8"?>
<svg id="logosandtypes_com" fill="#26a7dc" data-name="logosandtypes com" xmlns="http://www.w3.org/2000/svg" viewBox="0 0 150 150">
  <defs>
    <style>
      .cls-1 {
        fill: none;
      }
    </style>
  </defs>
  <g id="Layer_3" data-name="Layer 3">
    <g id="Layer_3-2" data-name="Layer 3">
      <g id="Layer_2" data-name="Layer 2">
        <path id="Layer_3-3" data-name="Layer 3" class="cls-1" d="M0,0H150V150H0V0Z"/>
      </g>
    </g>
  </g>
  <path d="M26.49,67.46c6.32,.68,12.62,1.61,18.75,3.37,5.3,1.52,10.45,3.46,14.71,7.13,6.57,5.63,9.35,12.51,6.98,21.12-.83,2.78-1.99,5.44-3.48,7.92-.36,.63-1.1,1.38-.51,2.06s1.53,.1,2.2-.21c3.18-1.43,6.16-3.28,8.84-5.5,9.07-7.6,13.13-17.06,10.67-28.91-.13-.63-.48-1.44,.14-1.92s1.33,.08,1.95,.39c.13,.06,.25,.14,.36,.22,4.57,2.98,7.26,7.32,8.72,12.45,1.39,4.93,1.87,10.08,1.4,15.19-.45,5.01-1.31,9.97-2.58,14.83-.78,3.07-1.72,6.09-2.82,9.06-.23,.65-.52,1.5,.12,1.98s1.23-.12,1.77-.47c2.03-1.33,4.06-2.67,5.99-4.15,8.48-6.53,15.74-14.14,20.83-23.66,5.97-11.14,8.06-22.87,4.74-35.21-1.94-7.1-5.57-13.62-10.59-19.01-6.6-7.21-14.71-12.05-23.82-15.31-4.78-1.71-9.69-2.75-14.81-2.2-.62,.07-1.47,.08-1.58,.85-.12,.78,.68,.97,1.23,1.22,3.61,1.63,7.07,3.59,10.31,5.87,11.38,8.02,19.26,18.44,22.15,32.28,.14,.67,.1,1.26-.48,1.65s-1.14,.13-1.65-.2c-.86-.66-1.58-1.47-2.11-2.41-3.71-5.29-8.4-9.81-13.81-13.33-7.18-4.73-15.09-7.54-23.52-9.01-3.28-.61-6.63-.84-9.96-.68-.48,0-1.1,0-1.31,.59s.37,.83,.7,1.16c3.03,2.91,5.96,5.88,8.17,9.5,1.85,2.92,3.14,6.16,3.8,9.56,.13,.73,.36,1.56-.4,2.12s-1.35,0-1.97-.29c-1.06-.48-2.07-1.05-3.13-1.54-5.19-2.39-10.75-3.47-16.34-4.27-6.3-.88-12.65-1.39-19-1.54-8.18-.21-16.36-.07-24.54-.05l-2.59,7.77c1.65,.08,3.33,.17,5,.21,7.18,.16,14.35,.64,21.49,1.41Z"/>
</svg>